<svg id="visual" viewBox="0 0 900 600" width="900" height="600" xmlns="http://www.w3.org/2000/svg" xmlns:xlink="http://www.w3.org/1999/xlink" version="1.1"><rect x="0" y="0" width="900" height="600" fill="#053254"></rect><defs><linearGradient id="grad1_0" x1="33.3%" y1="100%" x2="100%" y2="0%"><stop offset="20%" stop-color="#053254" stop-opacity="1"></stop><stop offset="80%" stop-color="#053254" stop-opacity="1"></stop></linearGradient></defs><defs><linearGradient id="grad2_0" x1="0%" y1="100%" x2="66.7%" y2="0%"><stop offset="20%" stop-color="#053254" stop-opacity="1"></stop><stop offset="80%" stop-color="#053254" stop-opacity="1"></stop></linearGradient></defs><g transform="translate(900, 600)"><path d="M-324.5 0C-319.9 -42.1 -315.3 -84.2 -299.8 -124.2C-284.3 -164.1 -257.9 -202 -224.2 -224.2C-190.4 -246.3 -149.2 -252.9 -110.6 -267C-72 -281.1 -36 -302.8 0 -324.5L0 0Z" fill="#5686da"></path></g><g transform="translate(0, 0)"><path d="M324.5 0C324.3 47.1 324.2 94.3 299.8 124.2C275.4 154.1 226.8 166.8 195.9 195.9C165 225 151.8 270.5 122.1 294.7C92.4 318.9 46.2 321.7 0 324.5L0 0Z" fill="#5686da"></path></g></svg>