<svg id="visual" viewBox="0 0 540 960" width="540" height="960" xmlns="http://www.w3.org/2000/svg" xmlns:xlink="http://www.w3.org/1999/xlink" version="1.1"><rect x="0" y="0" width="540" height="960" fill="#053254"></rect><defs><linearGradient id="grad1_0" x1="0%" y1="100%" x2="100%" y2="0%"><stop offset="30%" stop-color="#053254" stop-opacity="1"></stop><stop offset="70%" stop-color="#053254" stop-opacity="1"></stop></linearGradient></defs><defs><linearGradient id="grad2_0" x1="0%" y1="100%" x2="100%" y2="0%"><stop offset="30%" stop-color="#053254" stop-opacity="1"></stop><stop offset="70%" stop-color="#053254" stop-opacity="1"></stop></linearGradient></defs><g transform="translate(540, 960)"><path d="M-324 0C-323.5 -46.1 -323.1 -92.2 -299.3 -124C-275.6 -155.8 -228.6 -173.4 -194.5 -194.5C-160.3 -215.6 -139 -240.2 -108.7 -262.4C-78.4 -284.6 -39.2 -304.3 0 -324L0 0Z" fill="#5686da"></path></g><g transform="translate(0, 0)"><path d="M324 0C323.5 46.7 323 93.5 299.3 124C275.7 154.5 228.8 168.8 198 198C167.2 227.2 152.4 271.2 122.1 294.7C91.8 318.2 45.9 321.1 0 324L0 0Z" fill="#5686da"></path></g></svg>